<svg width="130" height="110" viewBox="0 0 130 110" fill="none" xmlns="http://www.w3.org/2000/svg">
<path d="M57.7289 107.024C88.5027 107.024 113.45 83.5131 113.45 54.5103C113.45 25.5075 88.5027 1.99609 57.7289 1.99609C26.955 1.99609 2.00781 25.5075 2.00781 54.5103C2.00781 83.5131 26.955 107.024 57.7289 107.024Z" fill="#43A047" stroke="#43A047" stroke-width="1.5" stroke-linecap="round" stroke-linejoin="round"/>
<path d="M107.245 78.6107C107.121 78.8359 106.995 79.0584 106.869 79.2835L4.58043 70.328C4.5667 70.2892 4.55297 70.2478 4.54199 70.209L107.248 78.6133L107.245 78.6107Z" fill="#F55571"/>
<path d="M106.869 79.2836C106.647 79.6743 106.422 80.0573 106.191 80.4428L28.1734 73.19L13.2294 71.816H13.2266L4.82523 71.0449C4.80326 70.9828 4.78404 70.9233 4.75933 70.8612C4.74286 70.8094 4.72638 70.7602 4.70442 70.7085C4.66324 70.5817 4.61931 70.4549 4.57812 70.3281L106.867 79.2836H106.869Z" fill="#303030"/>
<path d="M105.56 81.4593C105.384 81.7335 105.205 82.0104 105.027 82.2795L13.232 71.8155H13.2292L4.76194 70.8607C4.74547 70.8089 4.729 70.7598 4.70703 70.708L28.1733 73.1921L105.557 81.4618L105.56 81.4593Z" fill="#F55571"/>
<path d="M105.027 82.2798C104.785 82.6421 104.543 83.0043 104.294 83.3588L5.02529 71.5984C5.01706 71.5803 5.01156 71.5622 5.00333 71.5389C4.94293 71.3733 4.88801 71.2103 4.82761 71.0421C4.80565 70.98 4.78643 70.9205 4.76172 70.8584L13.229 71.8132H13.2318L105.027 82.2772V82.2798Z" fill="#303030"/>
<path d="M96.7621 91.9835C96.1032 92.5942 95.4277 93.1893 94.7359 93.7689H94.7304L5.73046 73.4205C5.66457 73.2652 5.60416 73.11 5.54102 72.9521L96.7593 91.9809H96.7621V91.9835Z" fill="#F55571"/>
<path d="M94.7359 93.7687C94.1154 94.2888 93.4811 94.7959 92.8387 95.2902H92.8332L6.13681 74.3854C6.13407 74.3777 6.13132 74.3699 6.12583 74.3595C6.04072 74.1629 5.9556 73.9636 5.87324 73.767C5.82382 73.6531 5.77714 73.5367 5.73047 73.4229L94.7304 93.7713H94.7359V93.7687Z" fill="#303030"/>
<path d="M86.8531 99.2854C85.8866 99.8495 84.8982 100.38 83.8933 100.885H83.8906L6.78169 75.8061H6.77894C6.67736 75.5913 6.57852 75.3765 6.48242 75.1592L86.8531 99.2854Z" fill="#F55571"/>
<path d="M83.8908 100.884C82.9902 101.337 82.0732 101.769 81.1425 102.173C81.1425 102.173 81.1415 102.173 81.1397 102.173L7.3447 76.9675C7.17447 76.6311 7.00974 76.2921 6.84775 75.9506C6.82304 75.9014 6.79833 75.8548 6.77637 75.8057H6.77911L83.8853 100.887H83.888L83.8908 100.884Z" fill="#303030"/>
<path d="M119.071 74.4704C119.071 78.1629 118.412 80.1527 114.473 80.1527H95.0257C92.0221 80.1527 89.024 79.9897 86.0395 79.6636L7.01424 71.029C6.53102 70.9772 6.14115 70.6331 6.05055 70.1829L5.91602 69.5127L119.074 74.4704H119.071Z" fill="#303030"/>
<path d="M123.333 70.6359C123.333 72.825 121.392 74.5716 119.072 74.4707L5.30983 69.4845C5.05998 69.4741 4.8623 69.2775 4.8623 69.042L123.333 70.6359Z" fill="#303030"/>
<path d="M56.6996 76.452C55.9281 75.5412 55.4449 73.3004 55.4449 73.3004L47.6777 72.7881C47.6777 72.7881 47.8452 74.0456 48.5838 75.5645" stroke="#00826F" stroke-width="1.5" stroke-linecap="round" stroke-linejoin="round"/>
<path d="M45.2686 75.2643C44.574 74.4518 44.154 72.5086 44.154 72.5086L37.5234 72.0713C37.5234 72.0713 37.669 73.1736 38.3169 74.5036" stroke="#00826F" stroke-width="1.5" stroke-linecap="round" stroke-linejoin="round"/>
<path d="M34.4463 74.1189C33.8312 73.4048 33.4716 71.7617 33.4716 71.7617L27.9805 71.3994C27.9805 71.3994 28.1068 72.3439 28.6614 73.485" stroke="#00826F" stroke-width="1.5" stroke-linecap="round" stroke-linejoin="round"/>
<path d="M24.7241 73.0601C24.1859 72.4443 23.8867 71.0987 23.8867 71.0987L19.5322 70.8115C19.5322 70.8115 19.6366 71.5981 20.1006 72.5504" stroke="#00826F" stroke-width="1.5" stroke-linecap="round" stroke-linejoin="round"/>
<path d="M16.598 72.1419C16.1395 71.6244 15.9006 70.5764 15.9006 70.5764L12.6855 70.3643C12.6855 70.3643 12.7707 70.9956 13.1413 71.7589" stroke="#00826F" stroke-width="1.5" stroke-linecap="round" stroke-linejoin="round"/>
<path d="M10.5627 71.4171C10.1838 70.9979 10.0053 70.2475 10.0053 70.2475L7.92969 70.1104C7.92969 70.1104 7.99284 70.5839 8.27288 71.1583" stroke="#00826F" stroke-width="1.5" stroke-linecap="round" stroke-linejoin="round"/>
<path d="M119.073 74.4703H94.1131C88.4325 74.4703 85.3301 74.4703 79.5012 74.0692C77.8484 73.9554 70.559 73.5362 60.9688 72.9902" stroke="#00826F" stroke-width="1.5" stroke-linecap="round" stroke-linejoin="round"/>
<path d="M7.33072 68.907H7.30052L4.93659 68.8733C4.3765 68.8656 3.91525 68.4593 3.87406 67.934C3.73404 66.2444 3.78621 64.5832 4.05802 62.9582C4.18706 62.1975 4.7142 61.5713 5.4253 61.2659L5.47747 61.2452L5.6724 61.178L8.03632 60.3525C7.67117 60.5078 7.35268 60.7381 7.10009 61.0201C6.78984 61.3617 6.57843 61.7886 6.49881 62.257C6.19131 64.089 6.13366 65.9572 6.28741 67.8642C6.33134 68.405 6.77337 68.8345 7.33346 68.9095L7.33072 68.907Z" fill="#00826F" stroke="#303030" stroke-width="2" stroke-linecap="round" stroke-linejoin="round"/>
<path d="M6.36652 63.1499C6.40222 62.8497 6.4434 62.5521 6.49282 62.2546C6.52302 62.0786 6.57519 61.913 6.64108 61.75L4.18381 62.5082C4.12615 62.6505 4.07948 62.8005 4.05202 62.9558C4.00809 63.2197 3.9724 63.4862 3.93945 63.7528L6.36378 63.1499H6.36652Z" fill="#303030"/>
<path d="M4.93671 68.8711L7.30064 68.9047H7.33084C6.92175 68.8504 6.57856 68.6046 6.40284 68.2656L3.97852 68.2993C4.15149 68.6356 4.51664 68.8634 4.93671 68.8711Z" fill="white"/>
<path d="M3.86035 64.5941C4.61812 64.4388 5.50769 64.2577 6.2737 64.0999C6.28193 64.0119 6.28742 63.9239 6.29566 63.8359C5.52141 64.0274 4.64833 64.2448 3.87408 64.4388C3.86859 64.4906 3.86584 64.5423 3.86035 64.5967V64.5941Z" fill="white"/>
<path d="M10.7561 60.0527C10.1384 60.0527 9.5179 60.0786 8.89466 60.1329C7.67289 60.239 6.68174 61.1085 6.4923 62.2521C6.18754 64.0841 6.12714 65.9549 6.28363 67.8593C6.33305 68.4493 6.85471 68.9073 7.48344 68.9177L10.1466 68.9565L10.7561 68.9668V60.0527Z" fill="#303030"/>
<path d="M11.3234 68.9753L8.38287 68.9339L7.98752 68.9287C7.3478 68.921 6.81516 68.4526 6.76574 67.8497C6.6065 65.9013 6.6669 63.9891 6.9799 62.1183C7.13365 61.1972 7.78984 60.4519 8.67116 60.1259L8.81118 60.0742L12.1662 58.8994C11.6226 59.1012 11.1559 59.4402 10.8154 59.8749C10.5189 60.2475 10.313 60.6926 10.2334 61.1765C9.87646 63.3189 9.80782 65.508 9.98902 67.7385C10.0467 68.4086 10.6205 68.9313 11.3261 68.9727L11.3234 68.9753Z" fill="#00826F" stroke="#303030" stroke-width="2" stroke-linecap="round" stroke-linejoin="round"/>
<path d="M10.0819 62.2261C10.1258 61.8768 10.1725 61.5249 10.2302 61.1782C10.2631 60.9738 10.3263 60.7771 10.4004 60.5908L7.1277 61.6026C7.06181 61.7682 7.0069 61.9389 6.9767 62.1201C6.92728 62.4228 6.88335 62.7281 6.84766 63.0335L10.0819 62.2287V62.2261Z" fill="#303030"/>
<path d="M11.3234 68.9746C10.7962 68.9436 10.3432 68.6434 10.1235 68.2139L6.88379 68.2604C7.08421 68.6512 7.50428 68.9203 7.9875 68.9254L8.38286 68.9306L9.31086 68.9461L11.3234 68.9772V68.9746Z" fill="white"/>
<path d="M6.75 63.9996C7.78233 63.7874 8.92448 63.5493 9.97054 63.332C9.98152 63.1948 9.9925 63.0551 10.0062 62.918C8.96566 63.1741 7.80429 63.4614 6.77471 63.7175C6.76647 63.8107 6.75824 63.9064 6.75 63.9996Z" fill="white"/>
<path d="M11.8259 68.9827L11.3894 68.9775H11.3674C10.6398 68.9542 10.0413 68.4264 9.98639 67.7407C9.80243 65.5102 9.87107 63.3212 10.2307 61.1787C10.4037 60.1281 11.156 59.2742 12.1664 58.899L12.3229 58.8447L12.7649 58.6895C11.749 59.0802 10.9913 59.947 10.8183 61.0131C10.4531 63.2073 10.379 65.4455 10.5684 67.7303C10.6234 68.385 11.1532 68.8999 11.8259 68.9827Z" stroke="#303030" stroke-width="2" stroke-linecap="round" stroke-linejoin="round"/>
<path d="M11.3225 68.8304C11.4762 68.9106 11.6437 68.9623 11.8249 68.983L11.3884 68.9779H11.3664C11.3527 68.9779 11.3362 68.9779 11.3225 68.9753C10.6169 68.9339 10.0431 68.4112 9.98541 67.741C9.80146 65.5106 9.8701 63.3215 10.2298 61.179C10.3121 60.6951 10.5153 60.2501 10.8118 59.8775C11.155 59.4402 11.619 59.1012 12.1626 58.902L12.3191 58.8476L12.7612 58.6924C12.1434 58.9304 11.619 59.3444 11.2676 59.8723C11.0397 60.2113 10.8832 60.5968 10.8146 61.016C10.4494 63.2102 10.3753 65.4485 10.5647 67.7333C10.6032 68.212 10.9024 68.6156 11.3225 68.833V68.8304Z" stroke="#303030" stroke-width="2" stroke-linecap="round" stroke-linejoin="round"/>
<path d="M15.913 68.6779C16.2095 68.9134 16.5884 69.0557 17.0002 69.0609L15.913 69.0479L15.2183 69.0376L11.8248 68.9858C11.1522 68.903 10.6195 68.3881 10.5674 67.7335C10.3779 65.4487 10.4493 63.2104 10.8172 61.0162C10.9902 59.9501 11.748 59.0833 12.7638 58.6926L12.9862 58.615L17.8788 56.8994C17.0112 57.2384 16.3111 57.8723 15.913 58.6745C15.762 58.972 15.6576 59.2955 15.6 59.6344C15.3995 60.8377 15.2733 62.0486 15.2183 63.2751C15.1744 64.2429 15.1772 65.2235 15.2183 66.2094C15.2376 66.6622 15.2678 67.115 15.3035 67.5679C15.3391 68.0155 15.5698 68.4114 15.913 68.6805V68.6779Z" fill="#00826F" stroke="#303030" stroke-width="2" stroke-linecap="round" stroke-linejoin="round"/>
<path d="M15.4194 60.8968C15.4715 60.475 15.5292 60.0507 15.6006 59.6315C15.6418 59.3831 15.7104 59.1476 15.801 58.9199L10.9908 60.4052C10.9139 60.5992 10.848 60.8011 10.8151 61.0107C10.7547 61.3652 10.708 61.7222 10.6641 62.0767L15.4221 60.8942L15.4194 60.8968Z" fill="#303030"/>
<path d="M11.8249 68.9829L15.2184 69.0346L15.913 69.0449L17.0003 69.0579C16.5884 69.0527 16.2095 68.9104 15.913 68.6749C15.7263 68.53 15.5753 68.3463 15.4682 68.1367L10.6992 68.204C10.9051 68.6206 11.3252 68.9207 11.8249 68.9803V68.9829Z" fill="white"/>
<path d="M10.5488 63.2182C12.1001 62.8973 13.7117 62.5635 15.2849 62.2375C15.3014 62.0279 15.3206 61.8209 15.3398 61.6113C13.7694 61.9943 12.1413 62.3954 10.5873 62.7783C10.5735 62.9258 10.5626 63.0707 10.5516 63.2182H10.5488Z" fill="white"/>
<path d="M21.6331 56.5186C20.7573 56.5186 19.8787 56.5574 19.0001 56.6324C17.2704 56.7825 15.8702 58.0142 15.6011 59.6314C15.1701 62.2215 15.085 64.8686 15.3073 67.5648C15.376 68.4005 16.1145 69.0474 17.0041 69.0604L20.771 69.1173L21.6331 69.1302V56.5186Z" fill="#303030"/>
<path d="M25.0348 69.1818L22.4375 69.143L21.5562 69.1301H21.5534L17.7069 69.0732C16.8009 69.0602 16.0458 68.4004 15.9772 67.5439C15.7493 64.7882 15.8372 62.0868 16.2765 59.4372C16.4906 58.1563 17.3994 57.111 18.6184 56.6374L18.6431 56.6271L18.8628 56.5495L26.1083 54.0137C24.6367 54.5959 23.5439 55.8664 23.2859 57.4163C22.7477 60.6507 22.6434 63.9498 22.9207 67.3162C23.0058 68.359 23.9283 69.1637 25.0348 69.1818Z" fill="#00826F" stroke="#303030" stroke-width="2" stroke-linecap="round" stroke-linejoin="round"/>
<path d="M23.0612 58.9982C23.1271 58.4703 23.1985 57.9399 23.2863 57.4146C23.3385 57.1092 23.4208 56.8143 23.5362 56.5322L16.4938 58.7084C16.4005 58.9412 16.3236 59.1819 16.2797 59.4354C16.2083 59.865 16.1479 60.2971 16.0957 60.7292L23.0639 58.9956L23.0612 58.9982Z" fill="#303030"/>
<path d="M17.7068 69.0705L21.5533 69.1274H21.556L22.4373 69.1403L25.0346 69.1791C24.1972 69.1662 23.4697 68.703 23.1237 68.0303L16.1445 68.1286C16.4273 68.6797 17.0231 69.0575 17.7068 69.0705Z" fill="white"/>
<path d="M15.9551 62.0976C18.2257 61.6241 20.6033 61.1298 22.8958 60.6486C22.9206 60.351 22.9425 60.0508 22.9727 59.7559C20.6665 60.3148 18.2943 60.8918 16.01 61.4481C15.988 61.6655 15.9716 61.8828 15.9551 62.0976Z" fill="white"/>
<path d="M30.8146 53.5329C29.7219 53.5329 28.6264 53.5794 27.5282 53.6752C25.3702 53.8615 23.624 55.3985 23.2863 57.4168C22.7482 60.6486 22.6411 63.9529 22.9184 67.3167C23.0035 68.3595 23.926 69.1668 25.0352 69.1823L29.7356 69.2522L30.8119 69.2677V53.5303L30.8146 53.5329Z" fill="#303030" stroke="#303030" stroke-width="2" stroke-linecap="round" stroke-linejoin="round"/>
<path d="M43.3526 69.4567L31.8707 69.2833L26.1022 69.1979H25.9567C24.8201 69.1772 23.8811 68.3544 23.7932 67.2858C23.5104 63.8469 23.6203 60.4676 24.1694 57.1633C24.4384 55.5487 25.5861 54.2394 27.1291 53.6494L27.3158 53.5847L44.9203 47.416C42.7787 48.2647 41.1891 50.1096 40.8129 52.366C40.0277 57.0598 39.8767 61.8597 40.2775 66.745C40.4011 68.2587 41.7382 69.4308 43.3498 69.4541L43.3526 69.4567Z" fill="#00826F" stroke="#303030" stroke-width="2" stroke-linecap="round" stroke-linejoin="round"/>
<path d="M40.4863 54.6632C40.5797 53.8947 40.684 53.1288 40.813 52.3655C40.8872 51.9204 41.0107 51.4909 41.1754 51.082L24.4303 56.2545C24.3122 56.5443 24.2271 56.8497 24.1722 57.1653C24.0844 57.701 24.0102 58.2392 23.9443 58.7774L40.4891 54.6632H40.4863Z" fill="#303030"/>
<path d="M31.8711 69.2827L43.353 69.4561C42.134 69.438 41.0742 68.7652 40.5772 67.7871L24.0078 68.02C24.3592 68.7109 25.106 69.1844 25.9626 69.1973H26.0725L26.6985 69.2077L31.8738 69.2827H31.8711Z" fill="white"/>
<path d="M23.7772 60.4315L40.2505 57.0108C40.2862 56.5709 40.3219 56.1336 40.3658 55.6963L23.8568 59.5052C23.8238 59.8131 23.7991 60.121 23.7744 60.4315H23.7772Z" fill="white"/>
<path d="M51.7456 46.7275C50.1586 46.7275 48.5662 46.7948 46.9711 46.9345C43.8356 47.2062 41.3015 49.4393 40.8128 52.3684C40.0303 57.0622 39.8765 61.8595 40.2774 66.7448C40.4009 68.2585 41.7408 69.4306 43.3497 69.4539L50.1779 69.5574L51.7428 69.5807V46.7275H51.7456Z" fill="#303030" stroke="#303030" stroke-width="2" stroke-linecap="round" stroke-linejoin="round"/>
<path d="M76.253 69.9478L53.3276 69.6062L51.7269 69.583H51.7242L44.7368 69.4795C44.7148 69.4795 44.6983 69.4795 44.6764 69.4769C43.0537 69.4251 41.7167 68.2348 41.5904 66.7056C41.1813 61.7039 41.3378 56.7979 42.1395 51.9928C42.5458 49.558 44.3359 47.5914 46.7108 46.7919L79.1386 35.4248C75.5776 36.6694 72.9062 39.6373 72.2912 43.309C71.0721 50.6266 70.8305 58.1046 71.4593 65.7249C71.6514 68.0874 73.7353 69.9116 76.2502 69.9478H76.253Z" fill="#00826F" stroke="#303030" stroke-width="2" stroke-linecap="round" stroke-linejoin="round"/>
<path d="M71.5141 39.9268C70.781 41.0109 70.2703 42.2452 70.0479 43.5804C69.9546 44.1393 69.8667 44.7008 69.7871 45.2623" stroke="#303030" stroke-width="2" stroke-linecap="round" stroke-linejoin="round"/>
<path d="M68.6733 40.8477C67.9594 41.9008 67.4625 43.104 67.2456 44.4029C67.155 44.9489 67.0699 45.4923 66.9902 46.0409" stroke="#303030" stroke-width="2" stroke-linecap="round" stroke-linejoin="round"/>
<path d="M66.0447 41.7021C65.3501 42.7268 64.8669 43.8964 64.6582 45.1591C64.5704 45.6896 64.488 46.22 64.4111 46.7504" stroke="#303030" stroke-width="2" stroke-linecap="round" stroke-linejoin="round"/>
<path d="M63.6151 42.499C62.9397 43.4952 62.4729 44.6312 62.267 45.8577C62.1819 46.3726 62.1023 46.8875 62.0254 47.405" stroke="#303030" stroke-width="2" stroke-linecap="round" stroke-linejoin="round"/>
<path d="M61.3723 43.2383C60.7161 44.206 60.2631 45.3083 60.0654 46.4986C59.983 46.998 59.9034 47.5 59.832 47.9994" stroke="#303030" stroke-width="2" stroke-linecap="round" stroke-linejoin="round"/>
<path d="M59.302 43.9248C58.6678 44.8615 58.2257 45.9327 58.0335 47.0868C57.9539 47.5707 57.877 48.0571 57.8057 48.5436" stroke="#303030" stroke-width="2" stroke-linecap="round" stroke-linejoin="round"/>
<path d="M57.394 44.5635C56.779 45.4717 56.3507 46.5093 56.164 47.6271C56.0844 48.0955 56.013 48.5664 55.9443 49.0373" stroke="#303030" stroke-width="2" stroke-linecap="round" stroke-linejoin="round"/>
<path d="M52.8749 51.139C52.9353 50.2619 53.0973 49.113 53.3499 48.0262C53.4268 47.6898 53.0918 47.4026 52.7459 47.5087L42.5105 50.6707C42.3403 51.0899 42.2167 51.5324 42.1398 51.9903C42.0108 52.7692 41.9037 53.5506 41.8076 54.3347L52.3807 51.7057C52.658 51.6358 52.8557 51.4081 52.8749 51.1365V51.139Z" fill="#303030"/>
<path d="M76.2495 69.9475C74.3523 69.919 72.6995 68.871 71.9225 67.3418L41.8916 67.7662C42.394 68.752 43.4538 69.4351 44.6728 69.4739C44.6811 69.4739 44.6866 69.4739 44.6948 69.4739L53.1456 69.6007H53.3241L76.2495 69.9449V69.9475Z" fill="white"/>
<path d="M41.5545 56.7403C41.5545 56.7403 48.1329 55.4284 51.3177 54.7143C54.7249 53.9535 65.9817 51.7593 71.4069 50.5431C71.4618 49.8574 71.525 49.1743 71.5936 48.4912C70.5723 48.7396 67.7498 49.4279 67.7498 49.4279C59.299 51.3272 41.6753 55.3922 41.6753 55.3922C41.6286 55.8683 41.5847 56.2616 41.5518 56.7377L41.5545 56.7403Z" fill="white"/>
<path d="M89.3415 34.5137C86.8678 34.5137 84.3858 34.6198 81.8983 34.8345C77.0112 35.2563 73.0576 38.7365 72.2944 43.3087C71.0754 50.6263 70.8337 58.1069 71.4597 65.7246C71.6547 68.0844 73.7385 69.9138 76.2507 69.9501L86.898 70.1105H86.9007L89.3388 70.1467V34.5137H89.3415Z" fill="#303030" stroke="#303030" stroke-width="2" stroke-linecap="round" stroke-linejoin="round"/>
<path d="M109.18 70.4393L122.433 70.636C125.692 70.6851 128.152 67.9113 127.581 64.8865C126.513 59.2327 123.841 53.6876 119.273 48.6677C110.138 38.6332 106.528 33.8877 92.2344 33.8877C89.714 33.8877 87.1854 33.9964 84.6512 34.2137C79.6708 34.6433 75.643 38.1908 74.8661 42.8458C73.6223 50.3031 73.378 57.9208 74.0177 65.6834C74.2154 68.0898 76.3404 69.9503 78.8993 69.9891L89.7442 70.1521H89.7497L109.183 70.4445V70.4393H109.18Z" fill="#00826F" stroke="#303030" stroke-width="2" stroke-linecap="round" stroke-linejoin="round"/>
<path d="M109.18 70.4393L122.433 70.636C125.692 70.6851 128.152 67.9113 127.581 64.8865C126.513 59.2327 123.841 53.6876 119.273 48.6677C110.138 38.6332 106.528 33.8877 92.2344 33.8877C89.714 33.8877 87.1854 33.9964 84.6512 34.2137C79.6708 34.6433 75.643 38.1908 74.8661 42.8458C73.6223 50.3031 73.378 57.9208 74.0177 65.6834C74.2154 68.0898 76.3404 69.9503 78.8993 69.9891L89.7442 70.1521H89.7497L109.183 70.4445V70.4393H109.18Z" fill="#00826F" stroke="#303030" stroke-width="2" stroke-linecap="round" stroke-linejoin="round"/>
<path d="M102.077 55.0669C100.718 55.4032 101 56.1407 102.17 57.3025C103.315 58.4384 105.006 59.6106 106.288 59.8849C108.029 60.2549 108.416 59.8021 107.595 58.3634C106.684 56.7643 105.857 55.5611 105.089 55.1341C104.545 54.834 103.007 54.834 102.074 55.0643L102.077 55.0669Z" fill="white"/>
<path d="M120.37 55.2295C121.745 55.6409 122.176 56.3033 122.731 57.4573C123.313 58.6657 123.626 60.0112 122.953 60.0319C122.363 60.0501 121.539 59.7007 120.378 58.2879C119 56.6112 118.533 55.7651 118.585 55.3407C118.623 55.0406 119.28 54.906 120.37 55.2321V55.2295Z" fill="white"/>
<path d="M116.226 61.4014C117.519 63.7923 118.719 67.3941 117.845 70.6363" stroke="#303030" stroke-width="2" stroke-linecap="round" stroke-linejoin="round"/>
<path d="M127.58 64.8868C126.982 62.3174 125.219 61.4014 122.342 61.4014H106.297C104.032 61.4014 102.656 62.9591 102.895 64.6125C103.161 66.4678 103.142 68.1367 98.4883 68.1367C93.8346 68.1367 75.4092 68.5792 75.4092 68.5792" stroke="#303030" stroke-width="2" stroke-linecap="round" stroke-linejoin="round"/>
<path d="M93.4151 42.2558C94.6972 44.2379 95.7268 45.8266 96.5395 47.079C98.1594 49.5682 101.034 51.0871 104.131 51.0871H113.864C115.706 51.0871 116.835 49.1878 115.874 47.7078C115.003 46.3726 113.845 44.5846 112.34 42.2558C111.681 41.2363 111.039 40.3307 110.407 39.5285C105.883 35.7249 101.125 33.8877 92.2317 33.8877C89.7113 33.8877 87.1827 33.9964 84.6485 34.2137C83.6903 34.2965 82.7678 34.4958 81.8975 34.7959V34.8347C85.8126 34.8347 89.2281 35.7766 93.4151 42.2558Z" fill="#303030" stroke="#303030" stroke-width="2" stroke-linecap="round" stroke-linejoin="round"/>
<path d="M92.7969 61.9706C93.7413 58.3248 94.6364 54.3658 100.053 53.3696C105.47 52.3734 115.398 52.5157 118.369 53.0824C121.249 53.631 123.407 54.6453 126.073 59.5668" stroke="#303030" stroke-width="2" stroke-linecap="round" stroke-linejoin="round"/>
<path d="M127.581 64.8865C127.54 64.6639 127.49 64.444 127.444 64.2215C127.405 64.3043 127.378 64.3948 127.367 64.4906C127.287 65.7378 126.521 67.0911 125.121 67.2722C124.745 67.3783 122.414 67.2981 122.079 67.3162C117.151 67.2799 111.852 67.3162 106.912 67.2825C103.439 67.2385 100.48 65.4971 97.745 63.572C95.4195 61.9677 93.1325 60.322 90.8454 58.6453C88.6188 57.0048 82.7296 52.6603 80.5963 51.0664L78.8913 49.7959C78.3284 49.3767 77.5569 48.7635 76.9008 48.5047C76.0496 48.1295 75.1052 47.9588 74.1689 47.995C74.0975 48.6626 74.0344 49.3302 73.9795 49.9977C74.9459 49.9046 75.9508 50.1711 76.7113 50.7455L77.5487 51.3795C78.5975 52.179 81.5572 54.4173 82.6307 55.2323C86.6475 58.2391 92.2649 62.5318 96.3365 65.3703C99.5516 67.6991 103.189 69.6113 107.409 69.5233C107.775 69.5182 108.656 69.5311 109.04 69.5233C113.241 69.513 117.903 69.5337 122.076 69.5026C123.281 69.4716 124.841 69.6036 126.098 69.2594C127.273 68.1752 127.897 66.571 127.578 64.8865H127.581Z" fill="white"/>
<path d="M40.0381 46.8946L68.2377 36.0166" stroke="white" stroke-width="1.5" stroke-linecap="round" stroke-linejoin="round"/>
<path d="M26.1318 52.2609L35.3953 48.6875" stroke="white" stroke-width="1.5" stroke-linecap="round" stroke-linejoin="round"/>
<path d="M51.7452 40.167L30.4863 49.063" stroke="white" stroke-width="1.5" stroke-linecap="round" stroke-linejoin="round"/>
<path d="M56.2481 38.2832L54.8945 38.8499" stroke="white" stroke-width="1.5" stroke-linecap="round" stroke-linejoin="round"/>
</svg>
