<svg width="30" height="31" viewBox="0 0 30 31" fill="none" xmlns="http://www.w3.org/2000/svg">
<path d="M24.0532 4.96044C23.1587 5.01156 22.2615 4.93978 21.3865 4.74711C20.3311 4.38571 19.344 3.84934 18.4665 3.16044C17.7159 2.62829 17.003 2.04467 16.3332 1.41377C16.0492 1.14852 15.6751 1.00098 15.2865 1.00098C14.8979 1.00098 14.5238 1.14852 14.2399 1.41377C13.5878 2.02472 12.9023 2.59894 12.1865 3.13377C11.3036 3.83173 10.3128 4.38115 9.2532 4.76044C8.25659 4.98562 7.23279 5.06645 6.2132 5.00044C5.37834 4.96587 4.54599 4.88575 3.71986 4.76044C3.51799 4.73051 3.31216 4.74155 3.11464 4.79288C2.91712 4.84421 2.73197 4.93479 2.57021 5.05922C2.40845 5.18365 2.2734 5.33938 2.17313 5.51712C2.07285 5.69486 2.00939 5.89098 1.98653 6.09377C1.91986 6.73377 1.74653 8.40044 1.66653 10.2538C1.55442 12.1055 1.67085 13.9639 2.0132 15.7871C2.97859 18.8077 4.75413 21.5056 7.14653 23.5871C9.04811 25.3808 11.1101 26.9964 13.3065 28.4138C13.8952 28.8179 14.5925 29.0343 15.3065 29.0343C16.0206 29.0343 16.7179 28.8179 17.3065 28.4138C19.3865 26.9595 21.3321 25.3218 23.1199 23.5204C25.3722 21.4237 27.0402 18.777 27.9599 15.8404" stroke="#010400" stroke-width="2" stroke-linecap="round" stroke-linejoin="round"/>
<path d="M13.6667 13.6667L17.4801 17.48C17.5038 17.5059 17.5327 17.5265 17.5648 17.5406C17.5969 17.5548 17.6316 17.5621 17.6667 17.5621C17.7019 17.5621 17.7366 17.5548 17.7687 17.5406C17.8008 17.5265 17.8297 17.5059 17.8534 17.48L28.3334 7" stroke="#5E4AE3" stroke-width="2" stroke-linecap="round" stroke-linejoin="round"/>
</svg>
